<svg width="19" height="10" viewBox="0 0 19 10" fill="none" xmlns="http://www.w3.org/2000/svg">
<path d="M4.11675 0.575888C4.19675 0.439888 4.28475 0.355888 4.38075 0.323888C4.47675 0.291887 4.56475 0.295887 4.64475 0.335887C4.79675 0.423888 4.87275 0.587888 4.87275 0.827887C4.86475 1.29989 4.86075 1.79589 4.86075 2.31589C4.86075 2.83589 4.86075 3.35589 4.86075 3.87589C4.86875 4.39589 4.87275 4.89989 4.87275 5.38789C4.87275 5.87589 4.86875 6.31989 4.86075 6.71989C5.06875 6.70389 5.25675 6.69989 5.42475 6.70789C5.59275 6.71589 5.78075 6.71589 5.98875 6.70789C6.14875 6.74789 6.24875 6.82789 6.28875 6.94789C6.32875 7.03589 6.32075 7.12389 6.26475 7.21189C6.21675 7.29989 6.12475 7.34389 5.98875 7.34389C5.78075 7.34389 5.59275 7.34389 5.42475 7.34389C5.26475 7.34389 5.08075 7.35189 4.87275 7.36789C4.86475 7.67989 4.85675 7.91189 4.84875 8.06389C4.84875 8.20789 4.84875 8.33989 4.84875 8.45989C4.84875 8.57189 4.84875 8.70389 4.84875 8.85589C4.84875 8.99989 4.84875 9.22789 4.84875 9.53989C4.84075 9.66789 4.79675 9.76389 4.71675 9.82789C4.64475 9.89189 4.56475 9.92389 4.47675 9.92389C4.38875 9.92389 4.31275 9.89189 4.24875 9.82789C4.18475 9.77189 4.14475 9.68389 4.12875 9.56389C4.12875 9.25189 4.12875 9.02389 4.12875 8.87989C4.12875 8.72789 4.12875 8.59589 4.12875 8.48389C4.12875 8.37189 4.12875 8.24389 4.12875 8.09989C4.13675 7.94789 4.14475 7.71589 4.15275 7.40389C3.87275 7.40389 3.60875 7.40789 3.36075 7.41589C3.12075 7.41589 2.87675 7.41989 2.62875 7.42789C2.38075 7.42789 2.12075 7.43189 1.84875 7.43989C1.57675 7.43989 1.28075 7.44389 0.960753 7.45189C0.800753 7.45189 0.688753 7.39989 0.624753 7.29589C0.560753 7.18389 0.584753 7.03589 0.696753 6.85189C0.976753 6.40389 1.26875 5.89989 1.57275 5.33989C1.88475 4.77189 2.19275 4.19989 2.49675 3.62389C2.80075 3.04789 3.09275 2.49189 3.37275 1.95589C3.65275 1.41989 3.90075 0.959888 4.11675 0.575888ZM4.12875 6.73189C4.13675 6.41189 4.14075 6.03989 4.14075 5.61589C4.14875 5.19189 4.15275 4.75589 4.15275 4.30789C4.15275 3.85989 4.15275 3.42389 4.15275 2.99989C4.16075 2.57589 4.16475 2.20789 4.16475 1.89589C3.90875 2.42389 3.67275 2.89989 3.45675 3.32389C3.24075 3.73989 3.02875 4.13989 2.82075 4.52389C2.62075 4.89989 2.41675 5.26789 2.20875 5.62789C2.00875 5.98789 1.79675 6.37189 1.57275 6.77989L4.12875 6.73189Z" fill="black" fill-opacity="0.01"/>
<path d="M7.04691 4.76389C7.06291 4.53989 7.07891 4.27589 7.09491 3.97189C7.11891 3.65989 7.15491 3.33989 7.20291 3.01189C7.25891 2.67589 7.33491 2.34389 7.43091 2.01589C7.52691 1.68789 7.65491 1.39589 7.81491 1.13989C7.97491 0.883888 8.17491 0.679888 8.41491 0.527888C8.65491 0.367888 8.94291 0.291888 9.27891 0.299888C9.69491 0.307888 10.0309 0.443888 10.2869 0.707888C10.5509 0.963888 10.7589 1.30789 10.9109 1.73989C11.0629 2.16389 11.1629 2.65589 11.2109 3.21589C11.2669 3.76789 11.2949 4.34789 11.2949 4.95589C11.2949 5.52389 11.2749 6.09589 11.2349 6.67189C11.2029 7.24789 11.1189 7.76789 10.9829 8.23189C10.8549 8.68789 10.6549 9.06389 10.3829 9.35989C10.1189 9.65589 9.75091 9.81189 9.27891 9.82789C8.94291 9.83589 8.65091 9.74789 8.40291 9.56389C8.15491 9.38789 7.94291 9.15189 7.76691 8.85589C7.59891 8.55189 7.46291 8.21189 7.35891 7.83589C7.26291 7.45989 7.18691 7.08389 7.13091 6.70789C7.08291 6.33189 7.05091 5.97189 7.03491 5.62789C7.02691 5.28389 7.03091 4.99589 7.04691 4.76389ZM9.23091 1.01989C8.96691 1.01989 8.74291 1.14789 8.55891 1.40389C8.37491 1.65189 8.22691 1.96789 8.11491 2.35189C8.00291 2.72789 7.91891 3.13589 7.86291 3.57589C7.81491 4.00789 7.79091 4.40789 7.79091 4.77589C7.79091 5.17589 7.80691 5.62389 7.83891 6.11989C7.87091 6.61589 7.93891 7.08389 8.04291 7.52389C8.15491 7.96389 8.30691 8.34389 8.49891 8.66389C8.69091 8.97589 8.94691 9.15189 9.26691 9.19189C9.53891 9.23189 9.75891 9.13189 9.92691 8.89189C10.1029 8.64389 10.2389 8.31589 10.3349 7.90789C10.4309 7.49989 10.4949 7.03189 10.5269 6.50389C10.5589 5.97589 10.5749 5.44389 10.5749 4.90789C10.5749 4.41989 10.5509 3.94389 10.5029 3.47989C10.4549 3.00789 10.3749 2.59189 10.2629 2.23189C10.1589 1.87189 10.0229 1.58389 9.85491 1.36789C9.68691 1.14389 9.47891 1.02789 9.23091 1.01989Z" fill="black" fill-opacity="0.01"/>
<path d="M16.0699 0.575888C16.1499 0.439888 16.2379 0.355888 16.3339 0.323888C16.4299 0.291887 16.5179 0.295887 16.5979 0.335887C16.7499 0.423888 16.8259 0.587888 16.8259 0.827887C16.8179 1.29989 16.8139 1.79589 16.8139 2.31589C16.8139 2.83589 16.8139 3.35589 16.8139 3.87589C16.8219 4.39589 16.8259 4.89989 16.8259 5.38789C16.8259 5.87589 16.8219 6.31989 16.8139 6.71989C17.0219 6.70389 17.2099 6.69989 17.3779 6.70789C17.5459 6.71589 17.7339 6.71589 17.9419 6.70789C18.1019 6.74789 18.2019 6.82789 18.2419 6.94789C18.2819 7.03589 18.2739 7.12389 18.2179 7.21189C18.1699 7.29989 18.0779 7.34389 17.9419 7.34389C17.7339 7.34389 17.5459 7.34389 17.3779 7.34389C17.2179 7.34389 17.0339 7.35189 16.8259 7.36789C16.8179 7.67989 16.8099 7.91189 16.8019 8.06389C16.8019 8.20789 16.8019 8.33989 16.8019 8.45989C16.8019 8.57189 16.8019 8.70389 16.8019 8.85589C16.8019 8.99989 16.8019 9.22789 16.8019 9.53989C16.7939 9.66789 16.7499 9.76389 16.6699 9.82789C16.5979 9.89189 16.5179 9.92389 16.4299 9.92389C16.3419 9.92389 16.2659 9.89189 16.2019 9.82789C16.1379 9.77189 16.0979 9.68389 16.0819 9.56389C16.0819 9.25189 16.0819 9.02389 16.0819 8.87989C16.0819 8.72789 16.0819 8.59589 16.0819 8.48389C16.0819 8.37189 16.0819 8.24389 16.0819 8.09989C16.0899 7.94789 16.0979 7.71589 16.1059 7.40389C15.8259 7.40389 15.5619 7.40789 15.3139 7.41589C15.0739 7.41589 14.8299 7.41989 14.5819 7.42789C14.3339 7.42789 14.0739 7.43189 13.8019 7.43989C13.5299 7.43989 13.2339 7.44389 12.9139 7.45189C12.7539 7.45189 12.6419 7.39989 12.5779 7.29589C12.5139 7.18389 12.5379 7.03589 12.6499 6.85189C12.9299 6.40389 13.2219 5.89989 13.5259 5.33989C13.8379 4.77189 14.1459 4.19989 14.4499 3.62389C14.7539 3.04789 15.0459 2.49189 15.3259 1.95589C15.6059 1.41989 15.8539 0.959888 16.0699 0.575888ZM16.0819 6.73189C16.0899 6.41189 16.0939 6.03989 16.0939 5.61589C16.1019 5.19189 16.1059 4.75589 16.1059 4.30789C16.1059 3.85989 16.1059 3.42389 16.1059 2.99989C16.1139 2.57589 16.1179 2.20789 16.1179 1.89589C15.8619 2.42389 15.6259 2.89989 15.4099 3.32389C15.1939 3.73989 14.9819 4.13989 14.7739 4.52389C14.5739 4.89989 14.3699 5.26789 14.1619 5.62789C13.9619 5.98789 13.7499 6.37189 13.5259 6.77989L16.0819 6.73189Z" fill="black" fill-opacity="0.01"/>
</svg>
