<svg width="448" height="512" viewBox="0 0 448 512" fill="none" xmlns="http://www.w3.org/2000/svg">
<path d="M442 114H6C4.4087 114 2.88258 113.368 1.75736 112.243C0.632141 111.117 0 109.591 0 108L0 84C0 82.4087 0.632141 80.8826 1.75736 79.7574C2.88258 78.6321 4.4087 78 6 78H442C443.591 78 445.117 78.6321 446.243 79.7574C447.368 80.8826 448 82.4087 448 84V108C448 109.591 447.368 111.117 446.243 112.243C445.117 113.368 443.591 114 442 114V114ZM442 274H6C4.4087 274 2.88258 273.368 1.75736 272.243C0.632141 271.117 0 269.591 0 268L0 244C0 242.409 0.632141 240.883 1.75736 239.757C2.88258 238.632 4.4087 238 6 238H442C443.591 238 445.117 238.632 446.243 239.757C447.368 240.883 448 242.409 448 244V268C448 269.591 447.368 271.117 446.243 272.243C445.117 273.368 443.591 274 442 274V274ZM442 434H6C4.4087 434 2.88258 433.368 1.75736 432.243C0.632141 431.117 0 429.591 0 428L0 404C0 402.409 0.632141 400.883 1.75736 399.757C2.88258 398.632 4.4087 398 6 398H442C443.591 398 445.117 398.632 446.243 399.757C447.368 400.883 448 402.409 448 404V428C448 429.591 447.368 431.117 446.243 432.243C445.117 433.368 443.591 434 442 434V434Z" fill="#448AFF"/>
</svg>
