<svg width="500" height="500" viewBox="0 0 500 500" fill="none" xmlns="http://www.w3.org/2000/svg">
<g clip-path="url(#clip0)">
<path d="M500 0L0 500" stroke="black" stroke-opacity="0.1"/>
<path d="M460 -40L-40 460" stroke="black" stroke-opacity="0.1"/>
<path d="M450 -50L-50 450" stroke="black" stroke-opacity="0.1"/>
<path d="M440 -60L-60 440" stroke="black" stroke-opacity="0.1"/>
<path d="M470 -30L-30 470" stroke="black" stroke-opacity="0.1"/>
<path d="M480 -20L-20 480" stroke="black" stroke-opacity="0.1"/>
<path d="M490 -10L-10 490" stroke="black" stroke-opacity="0.1"/>
<path d="M430 -70L-70 430" stroke="black" stroke-opacity="0.1"/>
<path d="M390 -110L-110 390" stroke="black" stroke-opacity="0.1"/>
<path d="M380 -120L-120 380" stroke="black" stroke-opacity="0.1"/>
<path d="M370 -130L-130 370" stroke="black" stroke-opacity="0.1"/>
<path d="M400 -100L-100 400" stroke="black" stroke-opacity="0.1"/>
<path d="M410 -90L-90 410" stroke="black" stroke-opacity="0.1"/>
<path d="M420 -80L-80 420" stroke="black" stroke-opacity="0.1"/>
<path d="M360 -140L-140 360" stroke="black" stroke-opacity="0.1"/>
<path d="M320 -180L-180 320" stroke="black" stroke-opacity="0.1"/>
<path d="M310 -190L-190 310" stroke="black" stroke-opacity="0.1"/>
<path d="M300 -200L-200 300" stroke="black" stroke-opacity="0.1"/>
<path d="M330 -170L-170 330" stroke="black" stroke-opacity="0.1"/>
<path d="M340 -160L-160 340" stroke="black" stroke-opacity="0.1"/>
<path d="M350 -150L-150 350" stroke="black" stroke-opacity="0.1"/>
<path d="M290 -210L-210 290" stroke="black" stroke-opacity="0.1"/>
<path d="M250 -250L-250 250" stroke="black" stroke-opacity="0.1"/>
<path d="M260 -240L-240 260" stroke="black" stroke-opacity="0.1"/>
<path d="M270 -230L-230 270" stroke="black" stroke-opacity="0.1"/>
<path d="M280 -220L-220 280" stroke="black" stroke-opacity="0.1"/>
<path d="M720 220L220 720" stroke="black" stroke-opacity="0.1"/>
<path d="M710 210L210 710" stroke="black" stroke-opacity="0.1"/>
<path d="M700 200L200 700" stroke="black" stroke-opacity="0.1"/>
<path d="M730 230L230 730" stroke="black" stroke-opacity="0.1"/>
<path d="M740 240L240 740" stroke="black" stroke-opacity="0.1"/>
<path d="M750 250L250 750" stroke="black" stroke-opacity="0.1"/>
<path d="M690 190L190 690" stroke="black" stroke-opacity="0.1"/>
<path d="M650 150L150 650" stroke="black" stroke-opacity="0.1"/>
<path d="M640 140L140 640" stroke="black" stroke-opacity="0.1"/>
<path d="M630 130L130 630" stroke="black" stroke-opacity="0.1"/>
<path d="M660 160L160 660" stroke="black" stroke-opacity="0.1"/>
<path d="M670 170L170 670" stroke="black" stroke-opacity="0.1"/>
<path d="M680 180L180 680" stroke="black" stroke-opacity="0.1"/>
<path d="M620 120L120 620" stroke="black" stroke-opacity="0.1"/>
<path d="M580 80L80 580" stroke="black" stroke-opacity="0.1"/>
<path d="M570 70L70 570" stroke="black" stroke-opacity="0.1"/>
<path d="M560 60L60 560" stroke="black" stroke-opacity="0.1"/>
<path d="M590 90L90 590" stroke="black" stroke-opacity="0.1"/>
<path d="M600 100L100 600" stroke="black" stroke-opacity="0.1"/>
<path d="M610 110L110 610" stroke="black" stroke-opacity="0.1"/>
<path d="M550 50L50 550" stroke="black" stroke-opacity="0.1"/>
<path d="M510 10L10 510" stroke="black" stroke-opacity="0.1"/>
<path d="M520 20L20 520" stroke="black" stroke-opacity="0.1"/>
<path d="M530 30L30 530" stroke="black" stroke-opacity="0.1"/>
<path d="M540 40L40 540" stroke="black" stroke-opacity="0.1"/>
</g>
<defs>
<clipPath id="clip0">
<rect width="500" height="500" fill="white"/>
</clipPath>
</defs>
</svg>
