<svg width="5660" height="2624" viewBox="0 0 5660 2624" fill="none" xmlns="http://www.w3.org/2000/svg">
<path d="M2676.6 1519H2790C2799.33 1519 2804 1527.17 2804 1543.5C2804 1559.83 2799.33 1568 2790 1568H2676.6C2636.47 1568 2608 1558.43 2591.2 1539.3C2574.4 1519.7 2566 1488.2 2566 1444.8V1062.6C2566 1051.87 2575.33 1046.5 2594 1046.5C2612.67 1046.5 2622 1051.87 2622 1062.6V1444.8C2622 1471.87 2625.97 1491 2633.9 1502.2C2642.3 1513.4 2656.53 1519 2676.6 1519Z" fill="#C3262E"/>
<path d="M3205.07 1150.1V1467.9C3205.07 1506.63 3189.91 1534.87 3159.57 1552.6C3129.71 1569.87 3090.04 1578.5 3040.57 1578.5C2934.17 1578.5 2880.97 1541.63 2880.97 1467.9V1150.1C2880.97 1111.37 2895.91 1083.37 2925.77 1066.1C2956.11 1048.37 2996.01 1039.5 3045.47 1039.5C3151.87 1039.5 3205.07 1076.37 3205.07 1150.1ZM2936.97 1143.1V1474.9C2936.97 1511.3 2972.21 1529.5 3042.67 1529.5C3113.61 1529.5 3149.07 1511.3 3149.07 1474.9V1143.1C3149.07 1106.7 3113.61 1088.5 3042.67 1088.5C2972.21 1088.5 2936.97 1106.7 2936.97 1143.1Z" fill="#C3262E"/>
<path d="M3613.23 1474.9V1406.3C3613.23 1383.9 3609.27 1368.03 3601.33 1358.7C3593.87 1349.37 3577.77 1344.7 3553.03 1344.7H3499.13C3489.8 1344.7 3485.13 1336.53 3485.13 1320.2C3485.13 1303.87 3489.8 1295.7 3499.13 1295.7H3553.03C3594.1 1295.7 3623.73 1304.1 3641.93 1320.9C3660.13 1337.7 3669.23 1366.17 3669.23 1406.3V1467.9C3669.23 1506.63 3654.07 1534.87 3623.73 1552.6C3593.87 1569.87 3554.2 1578.5 3504.73 1578.5C3398.33 1578.5 3345.13 1541.63 3345.13 1467.9V1150.1C3345.13 1111.37 3359.6 1083.37 3388.53 1066.1C3417.93 1048.37 3456.43 1039.5 3504.03 1039.5C3607.17 1039.5 3658.73 1076.37 3658.73 1150.1V1188.6C3658.73 1199.33 3649.4 1204.7 3630.73 1204.7C3612.07 1204.7 3602.73 1199.33 3602.73 1188.6V1143.1C3602.73 1106.7 3569.13 1088.5 3501.93 1088.5C3434.73 1088.5 3401.13 1106.7 3401.13 1143.1V1474.9C3401.13 1511.3 3436.37 1529.5 3506.83 1529.5C3577.77 1529.5 3613.23 1511.3 3613.23 1474.9Z" fill="#C3262E"/>
<path d="M3851 1143.1V1474.9C3851 1511.3 3885.07 1529.5 3953.2 1529.5C4021.8 1529.5 4056.1 1511.3 4056.1 1474.9V1424.5C4056.1 1413.77 4065.43 1408.4 4084.1 1408.4C4102.77 1408.4 4112.1 1413.77 4112.1 1424.5V1467.9C4112.1 1541.63 4060.07 1578.5 3956 1578.5C3907.47 1578.5 3868.5 1569.87 3839.1 1552.6C3809.7 1534.87 3795 1506.63 3795 1467.9V1150.1C3795 1111.37 3809.7 1083.37 3839.1 1066.1C3868.5 1048.37 3907.47 1039.5 3956 1039.5C4060.07 1039.5 4112.1 1076.37 4112.1 1150.1V1193.5C4112.1 1204.23 4102.77 1209.6 4084.1 1209.6C4065.43 1209.6 4056.1 1204.23 4056.1 1193.5V1143.1C4056.1 1106.7 4021.8 1088.5 3953.2 1088.5C3885.07 1088.5 3851 1106.7 3851 1143.1Z" fill="#4D4D4D"/>
<path d="M4562.07 1150.1V1467.9C4562.07 1506.63 4546.9 1534.87 4516.57 1552.6C4486.7 1569.87 4447.04 1578.5 4397.57 1578.5C4291.17 1578.5 4237.97 1541.63 4237.97 1467.9V1150.1C4237.97 1111.37 4252.9 1083.37 4282.77 1066.1C4313.1 1048.37 4353 1039.5 4402.47 1039.5C4508.87 1039.5 4562.07 1076.37 4562.07 1150.1ZM4293.97 1143.1V1474.9C4293.97 1511.3 4329.2 1529.5 4399.67 1529.5C4470.6 1529.5 4506.07 1511.3 4506.07 1474.9V1143.1C4506.07 1106.7 4470.6 1088.5 4399.67 1088.5C4329.2 1088.5 4293.97 1106.7 4293.97 1143.1Z" fill="#4D4D4D"/>
<path d="M4772.13 1099H4765.13V1555.4C4765.13 1566.13 4755.8 1571.5 4737.13 1571.5C4718.46 1571.5 4709.13 1566.13 4709.13 1555.4V1102.5C4709.13 1081.97 4711.46 1068.2 4716.13 1061.2C4721.26 1053.73 4732.93 1050 4751.13 1050H4766.53C4799.2 1050 4821.13 1053.73 4832.33 1061.2C4843.53 1068.67 4852.86 1087.33 4860.33 1117.2L4951.33 1484.7C4955.53 1501.5 4959.5 1512 4963.23 1516.2C4966.96 1520.4 4976.3 1522.5 4991.23 1522.5H4998.23V1066.1C4998.23 1055.37 5007.56 1050 5026.23 1050C5044.9 1050 5054.23 1055.37 5054.23 1066.1V1519C5054.23 1539.53 5051.66 1553.53 5046.53 1561C5041.86 1568 5030.43 1571.5 5012.23 1571.5H4996.83C4964.16 1571.5 4942.23 1567.77 4931.03 1560.3C4919.83 1552.83 4910.5 1534.17 4903.03 1504.3L4812.03 1136.8C4807.83 1120 4803.86 1109.5 4800.13 1105.3C4796.4 1101.1 4787.06 1099 4772.13 1099Z" fill="#4D4D4D"/>
<path d="M1520.01 1250.86L1104.83 1373.84L1205.91 952.793L1520.01 1250.86Z" fill="#C3262E"/>
<path d="M1104.83 1373.84L1520.01 1250.85L1418.93 1671.9L1104.83 1373.84Z" fill="#C3262E"/>
<path d="M280.238 953.217L1205.91 952.793L1104.83 1373.84L280.238 953.217Z" fill="#C3262E"/>
<path d="M2344.6 1671.48L1418.93 1671.9L1520.01 1250.85L2344.6 1671.48Z" fill="#C3262E"/>
<path d="M1373.91 1519.94L1250.93 1104.76L1671.97 1205.84L1373.91 1519.94Z" fill="#4D4D4D"/>
<path d="M1250.93 1104.76L1373.91 1519.94L952.865 1418.85L1250.93 1104.76Z" fill="#4D4D4D"/>
<path d="M1671.55 280.166L1671.97 1205.84L1250.93 1104.76L1671.55 280.166Z" fill="#4D4D4D"/>
<path d="M953.289 2344.53L952.865 1418.85L1373.91 1519.94L953.289 2344.53Z" fill="#4D4D4D"/>
</svg>
