<svg width="5306" height="866" viewBox="0 0 5306 866" fill="none" xmlns="http://www.w3.org/2000/svg">
<path d="M224.871 263.149C224.871 242.01 242.008 224.873 263.147 224.873H377.975C399.114 224.873 416.251 242.01 416.251 263.149V377.978C416.251 399.117 399.114 416.254 377.975 416.254H263.147C242.008 416.254 224.871 399.117 224.871 377.978V263.149Z" fill="white"/>
<path d="M0 263.149C0 242.01 17.1367 224.873 38.2759 224.873H153.104C174.243 224.873 191.38 242.01 191.38 263.149V377.978C191.38 399.117 174.243 416.254 153.104 416.254H38.2759C17.1367 416.254 0 399.117 0 377.978V263.149Z" fill="white"/>
<path d="M449.742 488.022C449.742 466.883 466.879 449.746 488.018 449.746H602.846C623.985 449.746 641.122 466.883 641.122 488.022V602.851C641.122 623.99 623.985 641.127 602.846 641.127H488.018C466.879 641.127 449.742 623.99 449.742 602.851V488.022Z" fill="white"/>
<path d="M224.871 488.022C224.871 466.883 242.008 449.746 263.147 449.746H377.975C399.114 449.746 416.251 466.883 416.251 488.022V602.851C416.251 623.99 399.114 641.127 377.975 641.127H263.147C242.008 641.127 224.871 623.99 224.871 602.851V488.022Z" fill="white"/>
<path d="M224.871 712.895C224.871 691.756 242.008 674.619 263.147 674.619H377.975C399.114 674.619 416.251 691.756 416.251 712.895V827.724C416.251 848.863 399.114 866 377.975 866H263.147C242.008 866 224.871 848.863 224.871 827.724V712.895Z" fill="white"/>
<path d="M674.613 488.022C674.613 466.883 691.75 449.746 712.889 449.746H827.717C848.856 449.746 865.993 466.883 865.993 488.022V602.851C865.993 623.99 848.856 641.127 827.717 641.127H712.889C691.75 641.127 674.613 623.99 674.613 602.851V488.022Z" fill="white"/>
<path d="M449.742 38.2762C449.742 17.1368 466.879 0 488.018 0H602.846C623.985 0 641.122 17.1368 641.122 38.2762V153.105C641.122 174.244 623.985 191.381 602.846 191.381H488.018C466.879 191.381 449.742 174.244 449.742 153.105V38.2762Z" fill="white"/>
<path d="M449.742 263.149C449.742 242.01 466.879 224.873 488.018 224.873H602.846C623.985 224.873 641.122 242.01 641.122 263.149V377.978C641.122 399.117 623.985 416.254 602.846 416.254H488.018C466.879 416.254 449.742 399.117 449.742 377.978V263.149Z" fill="white"/>
<path d="M1524.11 232.566H1028.67V261.35H1262V669.834H1291.39V261.35H1524.11V232.566ZM1673.2 261.35H2066.99V232.566H1673.2C1624.82 232.566 1585.63 271.761 1585.63 320.142V582.258C1585.63 630.639 1624.82 669.834 1673.2 669.834H2066.99V640.438H1673.2C1640.75 640.438 1615.02 614.716 1615.02 582.258V465.898H2066.99V436.502H1615.02V320.142C1615.02 287.684 1640.75 261.35 1673.2 261.35ZM2548.68 232.566H2227.77C2179.39 232.566 2140.2 271.761 2140.2 320.142V669.834H2169.59V465.898H2606.86V669.834H2635.64V320.142C2635.64 271.761 2596.45 232.566 2548.68 232.566ZM2169.59 436.502V320.142C2169.59 287.684 2195.32 261.35 2227.77 261.35H2548.68C2580.52 261.35 2606.86 287.684 2606.86 320.142V436.502H2169.59ZM3263.36 669.834H3292.14V261.35C3292.14 245.427 3279.28 232.566 3263.36 232.566H3233.96C3221.71 232.566 3207.02 239.303 3199.05 248.489L3004.31 475.085C3002.47 477.534 2998.79 477.534 2996.96 475.085L2802.82 248.489C2794.25 239.303 2779.55 232.566 2767.3 232.566H2738.52C2721.98 232.566 2709.12 245.427 2709.12 261.35V669.834H2738.52V261.35H2767.3C2770.98 261.35 2777.71 264.412 2780.16 267.474L2981.65 502.643C2992.06 514.892 3009.21 514.892 3019.62 502.643L3221.1 267.474C3223.55 264.412 3230.29 261.35 3233.96 261.35H3263.36V669.834Z" fill="white"/>
<path d="M3727.81 669.834H4111.18V603.693H3727.81C3705.76 603.693 3688 585.933 3688 563.885V232.566H3621.86V563.885C3621.86 622.678 3669.02 669.834 3727.81 669.834ZM4290.75 669.834H4611.66C4669.83 669.834 4716.99 622.678 4716.99 563.885V338.515C4716.99 279.723 4669.83 232.566 4611.66 232.566H4290.75C4231.96 232.566 4184.8 279.723 4184.8 338.515V563.885C4184.8 622.678 4231.96 669.834 4290.75 669.834ZM4290.75 298.095H4611.66C4633.7 298.095 4651.46 316.468 4651.46 338.515V563.885C4651.46 585.933 4633.7 603.693 4611.66 603.693H4290.75C4268.7 603.693 4250.94 585.933 4250.94 563.885V338.515C4250.94 316.468 4268.7 298.095 4290.75 298.095ZM4878.21 669.834H5199.12C5257.3 669.834 5304.45 622.678 5304.45 563.885V418.13H4976.2V484.271H5238.93V563.885C5238.93 585.933 5221.17 603.693 5199.12 603.693H4878.21C4856.17 603.693 4838.41 585.933 4838.41 563.885V338.515C4838.41 316.468 4856.17 298.095 4878.21 298.095H5290.37V232.566H4878.21C4819.42 232.566 4772.27 279.723 4772.27 338.515V563.885C4772.27 622.678 4819.42 669.834 4878.21 669.834Z" fill="white"/>
</svg>
